<svg xmlns="http://www.w3.org/2000/svg" viewBox="0 0 114.12 57.48"><defs><style>.cls-1{fill:#0e1010;}</style></defs><title>Mdev(dark)</title><g id="Layer_2" data-name="Layer 2"><g id="Layer_1-2" data-name="Layer 1"><path class="cls-1" d="M112.93,22.56l-40-20h0L68.27.23a2.14,2.14,0,0,0-2.37.3,2.06,2.06,0,0,0-.53.7L62.94,6.3a.08.08,0,0,1,0,0Q53.6,25.89,44.26,45.43l-28.71-14a2.16,2.16,0,0,1,0-3.87L46.61,12.29a2.16,2.16,0,0,0,1.2-1.93V4.16A2.15,2.15,0,0,0,44.7,2.23L1.19,23.87A2.16,2.16,0,0,0,0,25.8V33a2.14,2.14,0,0,0,1.19,1.92L41.85,55.25s0,0,0,0l3.93,2a2,2,0,0,0,.85.22,2.15,2.15,0,0,0,2.09-1.21L50,53.7,70.45,12.34,98.57,26.1a2.15,2.15,0,0,1,0,3.87l-31,15.22a2.17,2.17,0,0,0-1.21,1.94v6.2a2.16,2.16,0,0,0,3.12,1.93l43.5-21.65a2.15,2.15,0,0,0,1.19-1.93V24.49A2.16,2.16,0,0,0,112.93,22.56Z"/></g></g></svg>