<svg width="84" height="84" viewBox="0 0 84 84" fill="none" xmlns="http://www.w3.org/2000/svg">
<path d="M5.74875 0.65625L12.3473 74.7357L41.956 82.9913L71.6474 74.7055L78.2513 0.65625H5.74875V0.65625ZM64.5428 17.6282L62.3464 42.3065L62.3529 42.4397L62.3438 42.7462V42.7435L60.7832 59.999L60.6113 61.532L42 66.6796V66.6803L41.9856 66.6927L23.4065 61.5162L22.1484 47.25H31.2592L31.9056 54.5042L42.0026 57.2407L42 57.246V57.2447L52.1345 54.4694L53.2055 42.6562H32.0197L31.838 40.6593L31.4239 35.9809L31.2067 33.4688H54.0107L54.8402 24.2812H20.1075L19.9257 22.2856L19.5123 17.6059L19.2944 15.0938H64.7601L64.5428 17.6282V17.6282Z" fill="white"/>
</svg>
