<svg width="84" height="84" viewBox="0 0 84 84" fill="none" xmlns="http://www.w3.org/2000/svg">
<path d="M81.8619 38.3106L45.6914 2.14204C43.6098 0.0590997 40.2314 0.0590997 38.1465 2.14204L30.637 9.65347L40.1645 19.1809C42.3793 18.4334 44.9177 18.9348 46.6823 20.6995C48.4562 22.4753 48.9543 25.0353 48.1871 27.2574L57.3694 36.4409C59.5908 35.6751 62.1547 36.1699 63.9279 37.947C66.4085 40.4257 66.4085 44.4439 63.9279 46.9239C61.4473 49.4045 57.4304 49.4045 54.9485 46.9239C53.0834 45.0575 52.622 42.3177 53.567 40.0195L45.0043 31.4561L45.003 53.9923C45.608 54.2909 46.1783 54.6899 46.6823 55.192C49.1623 57.6706 49.1623 61.6875 46.6823 64.1714C44.2024 66.6501 40.1828 66.6501 37.7055 64.1714C35.2262 61.6882 35.0227 57.6713 37.5014 55.192C38.1143 54.5797 38.7187 54.117 39.375 53.8073V31.0623C38.7187 30.7526 38.115 30.2932 37.5007 29.677C35.6232 27.8001 35.2721 25.0438 36.2355 22.7365L26.8951 13.3436L2.11901 38.1433C0.0354207 40.2282 0.0485457 43.6065 2.13214 45.6901L38.3086 81.8587C40.3909 83.9416 43.7719 83.9416 45.8574 81.8587L81.8593 45.8581C83.9429 43.7739 83.9449 40.3935 81.8619 38.3106V38.3106Z" fill="white"/>
</svg>
