<svg width="84" height="84" viewBox="0 0 84 84" fill="none" xmlns="http://www.w3.org/2000/svg">
<path fill-rule="evenodd" clip-rule="evenodd" d="M42 3.34888C20.116 3.34888 2.37036 21.0906 2.37036 42.9785C2.37036 60.4886 13.7255 75.3428 29.4715 80.5836C31.4514 80.9511 32.1785 79.7239 32.1785 78.6772C32.1785 77.7322 32.1418 74.6104 32.1247 71.299C21.0997 73.6963 18.7733 66.6232 18.7733 66.6232C16.9706 62.0426 14.3732 60.8246 14.3732 60.8246C10.7769 58.3649 14.6442 58.4161 14.6442 58.4161C18.623 58.695 20.7191 62.5 20.7191 62.5C24.2537 68.5572 29.99 66.8063 32.2514 65.7943C32.6071 63.233 33.6341 61.4841 34.7675 60.4945C25.9652 59.4937 16.7114 56.095 16.7114 40.91C16.7114 36.5833 18.2601 33.0481 20.7952 30.2722C20.3831 29.2747 19.0266 25.244 21.1785 19.7853C21.1785 19.7853 24.5057 18.7202 32.0788 23.8475C35.2406 22.9688 38.6315 22.5271 42 22.512C45.3665 22.5271 48.7594 22.9675 51.9271 23.8462C59.491 18.7189 62.8143 19.784 62.8143 19.784C64.9714 25.242 63.6149 29.2734 63.2034 30.2709C65.7444 33.0468 67.282 36.582 67.282 40.9087C67.282 56.1298 58.0112 59.4806 49.1866 60.4623C50.6087 61.6921 51.8752 64.1045 51.8752 67.8012C51.8752 73.1037 51.8293 77.3713 51.8293 78.6765C51.8293 79.7311 52.5433 80.9669 54.5514 80.5777C70.2883 75.3316 81.6303 60.482 81.6303 42.9785C81.6296 21.0919 63.8859 3.34953 42 3.34953V3.34888Z" fill="white"/>
<path d="M17.3801 60.2477C17.2928 60.4446 16.9831 60.5037 16.7009 60.3692C16.4121 60.2405 16.2513 59.9721 16.3445 59.7746C16.4298 59.5712 16.7403 59.5154 17.027 59.6512C17.3158 59.7805 17.4798 60.0515 17.3794 60.2484L17.3801 60.2477ZM18.9853 62.0387C18.7969 62.2139 18.4275 62.1325 18.1768 61.8549C17.9169 61.5793 17.8683 61.2098 18.0606 61.032C18.2562 60.8574 18.6145 60.9401 18.8744 61.2157C19.1329 61.4953 19.1841 61.8615 18.9859 62.0393L18.9853 62.0387ZM20.5485 64.3204C20.3057 64.4897 19.908 64.3316 19.6625 63.9792C19.4197 63.6261 19.4197 63.2028 19.6691 63.0342C19.9139 62.8649 20.3057 63.0178 20.555 63.3669C20.7965 63.7246 20.7965 64.1478 20.5485 64.3198V64.3204ZM22.6885 66.5261C22.4719 66.7656 22.0086 66.7013 21.67 66.3751C21.3242 66.0556 21.2277 65.6008 21.4449 65.3619C21.6654 65.1217 22.1307 65.1887 22.4713 65.5128C22.8171 65.8318 22.9215 66.2872 22.6898 66.5254L22.6885 66.5261ZM25.6416 67.8064C25.5452 68.1168 25.1002 68.2579 24.6507 68.1254C24.2025 67.9895 23.9091 67.6266 24.001 67.3129C24.0929 66.9999 24.5411 66.8536 24.9933 66.9946C25.4415 67.1298 25.7348 67.4908 25.6416 67.8064ZM28.8855 68.0433C28.8966 68.3701 28.516 68.6405 28.0455 68.6471C27.571 68.6582 27.1871 68.3931 27.1825 68.0716C27.1825 67.7415 27.5553 67.4744 28.0291 67.4652C28.4996 67.4566 28.8861 67.7191 28.8861 68.0427L28.8855 68.0433ZM31.9029 67.5301C31.9594 67.8484 31.6319 68.1759 31.164 68.2632C30.7046 68.3485 30.278 68.1503 30.219 67.8346C30.1625 67.5078 30.4959 67.1804 30.9553 67.0957C31.4239 67.015 31.8439 67.2073 31.9029 67.5308V67.5301Z" fill="white"/>
</svg>
