<svg width="84" height="84" viewBox="0 0 84 84" fill="none" xmlns="http://www.w3.org/2000/svg">
<path d="M1.3125 0.65625V82.6875H83.3438V0.65625H1.3125ZM44.7031 70.5554C43.4923 73.0157 41.181 74.632 38.5028 75.4123C34.3875 76.3573 30.4513 75.8185 27.5231 74.0611C25.5636 72.8588 24.0332 71.0082 22.9943 68.8761L29.2418 65.0501C29.2963 65.0731 29.4604 65.3697 29.6796 65.753C30.4763 67.0878 31.1633 68.0328 32.5139 68.6963C33.8408 69.1491 36.7539 69.4385 37.8788 67.1035C38.5658 65.9157 38.3473 62.0977 38.3473 57.8734C38.3467 51.2354 38.3775 44.625 38.3775 38.0625H46.0615C46.0615 45.2812 46.1009 52.1181 46.0615 59.1623C46.0779 63.4804 46.4527 67.3299 44.7031 70.5554ZM76.5798 68.3845C73.9088 77.5208 59.0172 77.8175 53.0663 71.7813C51.809 70.3605 51.0208 69.6183 50.2707 67.9783C53.4332 66.1592 53.4332 66.1592 56.5103 64.3788C58.1818 66.948 59.7273 68.3609 62.5078 68.9391C66.2799 69.3998 70.075 68.1037 69.2239 64.0972C68.3491 60.8252 61.4998 60.0292 56.8385 56.53C52.1063 53.3518 50.9972 45.6291 54.8861 41.2164C56.1822 39.5843 58.3925 38.3663 60.7117 37.781L63.1319 37.4679C67.7788 37.3741 70.6834 38.6013 72.8155 40.9822C73.4088 41.5833 73.8931 42.2317 74.7987 43.6367C72.3233 45.2143 72.3312 45.1992 68.7855 47.4948C68.0282 45.8633 66.7715 44.8396 65.4432 44.3947C63.3813 43.7699 60.7812 44.4491 60.2418 46.6279C60.0547 47.2992 60.0935 47.924 60.3908 49.033C61.2262 50.9381 64.0297 51.7663 66.5444 52.922C73.7835 55.858 76.228 59.0061 76.8292 62.7533C77.408 65.9794 76.6894 68.0722 76.5798 68.3845V68.3845Z" fill="white"/>
</svg>
