<svg width="84" height="84" viewBox="0 0 84 84" fill="none" xmlns="http://www.w3.org/2000/svg">
<path fill-rule="evenodd" clip-rule="evenodd" d="M59.3847 37.5914C59.1419 34.4479 58.403 31.4167 57.3753 28.4472C55.2464 21.8164 51.83 15.9482 47.0177 10.899C45.801 9.62198 44.4478 8.45188 43.5993 6.86245C43.0625 5.85707 42.5513 4.83791 42.0282 3.82466L41.6968 2.98926C41.641 3.18088 41.6056 3.24913 41.6036 3.31804C41.561 4.96982 40.6252 6.09004 39.4597 7.13545C38.1491 8.3121 36.9292 9.58916 35.6698 10.8223C34.3783 12.5206 33.0875 14.219 31.7973 15.9167C30.7525 17.8363 29.7091 19.7558 28.6657 21.6753L26.5722 27.3302L26.5092 27.4182C25.3569 31.2034 24.7885 35.095 24.509 39.0259C24.404 40.5031 24.5234 42.002 24.6068 43.4871C24.7255 45.6101 25.0944 47.6969 25.6476 49.751C27.657 57.2139 31.735 63.4043 37.3098 68.6635C38.346 69.6406 39.4091 70.5292 40.4906 71.4591C40.6757 70.8258 40.8234 70.1925 40.9914 69.5593C41.1594 68.9286 41.3293 68.3012 41.4429 67.6686C41.3287 68.3012 41.2007 68.9286 41.074 69.5593L40.532 71.4591L41.0163 73.1004L41.4652 75.6493L41.6791 78.309C41.6771 78.8491 41.6555 79.3905 41.6883 79.93C41.6962 80.0678 41.8773 80.1951 41.9784 80.3277L42.8814 80.6446L43.8224 81.0108L43.661 78.6464L43.6538 76.318L43.9786 72.7709L44.2142 71.9985L44.8882 70.8042C45.7203 70.1348 46.6134 69.5271 47.3714 68.7823C48.743 67.4343 50.1113 66.0693 51.3385 64.5934C52.9312 62.6791 54.3014 60.5896 55.4013 58.3485C56.1376 56.8497 56.8306 55.3206 57.4042 53.7541C57.9095 52.3734 58.2225 50.9224 58.6209 49.5023C58.6563 49.3999 58.7035 49.2995 58.7259 49.1952C59.5488 45.362 59.6873 41.4901 59.3847 37.5914V37.5914ZM43.8979 69.9937L43.3696 68.8367L43.8979 69.9937L44.6742 70.6565L43.8979 69.9937Z" fill="white"/>
</svg>
