<svg width="84" height="84" viewBox="0 0 84 84" fill="none" xmlns="http://www.w3.org/2000/svg">
<path d="M73.9449 19.9068L44.9761 3.10348C43.1511 2.06398 40.7603 2.06398 38.9209 3.10348L9.72563 19.9068C7.84284 20.9902 6.5625 23.0266 6.5625 25.2047V58.7666C6.5625 60.9447 7.86975 62.9817 9.75319 64.0711L17.4503 68.4601C21.1431 70.2792 22.1662 70.2792 23.8462 70.2792C29.3153 70.2792 32.1556 66.9723 32.1556 61.2046V28.0705C32.1563 27.6026 32.4483 26.9063 31.9883 26.9063H28.2988C27.8316 26.9063 26.9063 27.6026 26.9063 28.0698V61.2039C26.9063 63.7607 24.5333 66.3049 20.2112 64.1439L12.2561 59.5416C11.9792 59.3907 11.8125 59.0868 11.8125 58.7666V25.2047C11.8125 24.8884 12.1163 24.5707 12.3972 24.4086L41.5203 7.63423C41.7926 7.48001 42.1778 7.48001 42.4489 7.63423L71.2996 24.4047C71.5759 24.5707 71.5319 24.8785 71.5319 25.2047V58.7666C71.5319 59.0868 71.5923 59.3986 71.3199 59.5528L42.3577 76.337C42.1096 76.486 41.7867 76.486 41.5144 76.337L34.0876 71.908C33.8638 71.7781 33.5941 71.7315 33.3788 71.8516C31.3149 73.0217 30.9317 73.1772 28.9958 73.8485C28.5187 74.0146 27.8152 74.3027 29.2635 75.1144L38.9747 80.8592C39.9039 81.3974 40.9612 81.6769 42.0243 81.6769C43.1018 81.6769 44.1564 81.3974 45.0863 80.8592L73.9456 64.0711C75.8297 62.9738 76.7819 60.9447 76.7819 58.7666V25.2047C76.7813 23.0266 75.829 20.9955 73.9449 19.9068V19.9068ZM51.0083 53.4483C43.3125 53.4483 41.6181 51.3254 41.053 47.4988C40.9861 47.0867 40.637 46.5938 40.217 46.5938H36.4567C35.9914 46.5938 35.6167 47.1582 35.6167 47.6215C35.6167 52.5211 38.281 58.4575 51.0083 58.4575C60.2208 58.4575 65.5036 54.8777 65.5036 48.5422C65.5036 42.2606 61.2596 40.6121 52.3248 39.4295C43.2935 38.2358 42.376 37.6327 42.376 35.517C42.376 33.7727 43.153 31.4463 49.8402 31.4463C55.8147 31.4463 58.0171 32.7286 58.9234 36.756C59.0015 37.1346 59.3473 37.4063 59.7378 37.4063H63.5138C63.7462 37.4063 63.9673 37.3125 64.1301 37.1464C64.2882 36.9679 64.3709 36.7442 64.3506 36.504C63.7645 29.5681 59.1577 26.336 49.8396 26.336C41.5498 26.336 36.6056 29.8365 36.6056 35.704C36.6056 42.0683 41.5255 43.8271 49.4826 44.6139C59.0015 45.5471 59.7417 46.9383 59.7417 48.8106C59.7417 52.063 57.1312 53.4483 51.0083 53.4483Z" fill="white"/>
</svg>
