<svg width="83" height="83" viewBox="0 0 83 83" fill="none" xmlns="http://www.w3.org/2000/svg">
<path fill-rule="evenodd" clip-rule="evenodd" d="M0.790436 36.4137C0.790436 36.8695 0.924662 37.1704 0.999881 37.4628C1.4901 39.3647 2.54381 40.9968 3.794 42.4856C5.57461 44.6073 7.7553 46.3153 9.98917 47.9215C11.9267 49.3143 13.9038 50.676 15.8491 52.0585C16.183 52.2958 16.4988 52.5688 16.8613 52.86C16.5494 53.0286 16.29 53.1771 16.0203 53.3139C13.4531 54.6159 10.9832 56.0756 8.70656 57.8439C7.33447 58.9099 6.00776 60.0427 5.07077 61.5231C3.56315 63.9042 3.02949 66.4409 4.15323 69.1494C4.48134 69.9405 4.98194 70.6239 5.68808 71.1291C5.91698 71.2925 6.17376 71.4546 6.44157 71.5181C7.12762 71.6796 7.82663 71.7853 8.52111 71.913L10.4878 71.9117C12.6627 71.7178 14.6424 70.9728 16.4314 69.7382C19.2275 67.8084 21.1112 65.2211 21.9211 61.9005C22.5099 59.487 22.5338 57.0709 21.84 54.6685C21.7758 54.4454 21.6948 54.2269 21.6105 54.011C21.5262 53.795 21.427 53.5849 21.3102 53.3158L25.7689 50.7519L25.8357 50.809C25.7546 51.0742 25.6684 51.3387 25.5951 51.6065C25.0653 53.5415 24.7132 55.5101 24.8397 57.5184C24.9746 59.6582 25.5718 61.6612 26.8246 63.449C27.8374 64.895 30.2509 64.9488 31.3273 63.4976C31.7092 62.9821 32.0795 62.4432 32.3577 61.8681C33.0846 60.3669 33.7576 58.8392 34.4521 57.3219L34.5734 57.0443C34.5235 57.7628 34.4651 58.3937 34.4385 59.0253C34.397 60.0116 34.4547 60.992 34.7919 61.9303C35.0805 62.7331 35.5713 63.3329 36.4908 63.4386C37.1198 63.5106 37.621 63.2227 38.0834 62.8576C38.8057 62.2876 39.3926 61.5834 39.8283 60.7832C41.061 58.5195 42.3268 56.2695 43.444 53.9487C44.6527 51.4386 45.7096 48.8552 46.8321 46.3023L47.0176 45.8497C47.2828 46.8918 47.4676 47.9124 47.808 48.8786C48.2035 49.9997 48.6931 51.0943 49.2261 52.1584C49.4784 52.6609 49.4492 52.9871 49.0997 53.4086C47.6368 55.1723 46.1992 56.9575 44.7603 58.7407C44.442 59.1343 44.1249 59.535 43.8597 59.9649C43.6995 60.2262 43.5931 60.5446 43.5484 60.8494C43.4622 61.4317 43.822 61.9932 44.4452 62.1274C45.0145 62.25 45.6208 62.2954 46.2012 62.2526C48.2094 62.1047 50.0328 61.3999 51.6448 60.2055C53.7334 58.6583 54.4039 56.547 53.8981 54.0447C53.7613 53.3658 53.5194 52.7057 53.284 52.0514C53.1784 51.7563 53.1712 51.5495 53.3638 51.2745C55.0335 48.8902 56.4601 46.3607 57.7868 43.7728C57.8393 43.671 57.8931 43.5692 57.9852 43.4602C58.4151 45.6973 59.0623 47.8534 60.2217 49.8097C59.6303 50.3797 59.0448 50.8965 58.515 51.4658C57.3485 52.7199 56.3369 54.0816 55.8091 55.7423C55.5821 56.4582 55.4077 57.1857 55.5088 57.9502C55.6658 59.1375 56.6384 59.9091 57.8063 59.6387C60.3053 59.0603 62.4627 57.8828 64.039 55.7967C65.0999 54.3922 65.1965 52.8256 64.7523 51.1844C64.6304 50.7383 64.4858 50.2993 64.3302 49.7877C64.9468 49.5964 65.5479 49.3668 66.1698 49.2248C69.3984 48.4882 72.5919 48.6166 75.7031 49.7825C77.5194 50.4634 78.9868 51.6027 79.857 53.3949C80.9198 55.586 80.3323 57.6649 78.267 59.05C78.0745 59.179 77.854 59.2808 77.6945 59.4423C77.5966 59.5415 77.5376 59.7399 77.5616 59.8767C77.5752 59.9565 77.7859 60.0563 77.9072 60.055C78.5861 60.0499 79.1366 59.6939 79.6651 59.3281C80.9892 58.4119 81.9554 57.1792 82.1635 55.5562L82.2044 55.4343L82.1544 54.3773C82.1343 54.3164 82.1693 54.2561 82.1648 54.21C81.8834 51.8465 80.6209 50.0133 78.7845 48.5764C76.6576 46.9132 74.1462 46.2284 71.4902 46.1201C69.3257 46.0319 67.1982 46.3536 65.1582 47.0947C64.5766 47.3055 64.0001 47.5551 63.4152 47.7905C63.3368 47.6485 63.2525 47.5123 63.1831 47.3716C62.5826 46.1422 61.8551 44.9672 61.6943 43.5575C61.5802 42.5563 61.4401 41.5564 61.6781 40.5663C61.907 39.6137 62.2053 38.6774 62.486 37.7378C62.6306 37.254 62.5288 36.983 62.0671 36.7651C61.9063 36.6892 61.7312 36.6231 61.5575 36.5978C60.4227 36.4331 59.3035 36.5271 58.2044 36.8468C57.8153 36.9603 57.5326 37.1782 57.4464 37.6087C57.3971 37.8558 57.2966 38.0925 57.2265 38.3363C56.9393 39.3498 56.7357 40.3827 56.2714 41.3483C55.1081 43.7702 53.7801 46.1007 52.421 48.4143C52.2738 48.6639 52.1188 48.909 51.9334 49.2119C51.4561 48.2133 50.9471 47.3171 50.7928 46.2667C50.6183 45.0787 50.4809 43.8927 50.7765 42.7139C50.9964 41.8346 51.2836 40.9715 51.5482 40.1039C51.6733 39.6915 51.6156 39.4749 51.2421 39.2577C51.0534 39.1481 50.8401 39.0509 50.6274 39.0191C49.4505 38.8446 48.2911 38.9361 47.1557 39.3031C46.8036 39.4172 46.6188 39.6448 46.5111 40.0079C46.1947 41.0792 45.9249 42.1763 45.4808 43.195C43.682 47.3191 41.8313 51.4217 39.9826 55.5238C39.5968 56.3803 39.1449 57.2071 38.7098 58.041C38.5995 58.2524 38.4387 58.4385 38.3013 58.6369C38.191 58.5066 38.1482 58.4171 38.1489 58.3276C38.1521 57.8004 38.0892 57.2577 38.1897 56.748C38.4938 55.206 38.844 53.6725 39.213 52.1448C39.5177 50.8829 39.8724 49.6327 40.2103 48.3793C40.3237 47.9597 40.3257 47.5674 40.0241 47.2147C39.5177 46.624 38.4595 46.4943 37.8318 46.9495L37.5543 47.1064L37.6081 46.659C37.7404 45.6999 37.7669 44.7441 37.5037 43.7994C37.1756 42.6218 36.3352 41.9442 35.1135 41.9818C34.5442 41.9993 33.9463 42.0966 33.4192 42.3041C31.2022 43.173 29.4974 44.7117 28.0462 46.563C27.9146 46.7309 27.7408 46.884 27.5553 46.9871C25.6794 48.0272 23.7976 49.0543 21.9165 50.0853L19.8227 51.2324C19.2612 50.6968 18.7509 50.1411 18.1718 49.6697C16.4035 48.2275 14.6067 46.8211 12.8261 45.3952C11.2478 44.1314 9.71877 42.815 8.54899 41.1414C7.67879 39.8964 7.11789 38.534 7.06407 36.9947C6.99598 35.0331 7.55234 33.2409 8.55094 31.5724C9.82836 29.4378 11.5707 27.7246 13.4862 26.1729C15.5126 24.5323 17.7043 23.1395 19.9758 21.8679C23.1538 20.0892 26.4225 18.5148 29.9273 17.4754C33.521 16.4094 37.1671 15.7992 40.9281 16.2246C42.4065 16.3919 43.8421 16.7303 45.1604 17.4533C46.17 18.0065 46.9981 18.7308 47.3833 19.8629C47.7633 20.977 47.7516 22.1059 47.4883 23.2374C46.9534 25.529 45.6986 27.4179 44.1197 29.1058C41.5298 31.8726 38.3706 33.7564 34.814 35.0007C32.7616 35.7185 30.6503 36.1692 28.482 36.3514C26.7124 36.4999 24.9797 36.343 23.3042 35.7276C22.1947 35.3197 21.2285 34.6959 20.4517 33.7907C20.3129 33.6286 20.1353 33.4529 19.8765 33.6046C19.623 33.7538 19.5783 33.995 19.6632 34.2394C19.8052 34.6454 19.9362 35.0681 20.1573 35.4313C20.713 36.3423 21.5236 37.0031 22.4158 37.5698C24.1296 38.6598 26.0451 39.0262 28.0313 39.1112C31.0452 39.2415 33.9859 38.7915 36.8851 37.9829C41.024 36.8287 44.6229 34.79 47.5091 31.5737C49.9122 28.8957 51.6286 25.8733 51.9962 22.2239C52.1759 20.4426 51.9846 18.6977 51.1507 17.0727C50.2461 15.3122 48.8079 14.003 47.0882 13.101C44.584 11.7879 41.8813 11.0234 39.0917 11.0234H36.2969C32.9186 11.0234 29.6524 11.9916 26.4776 13.1464C24.0745 14.0212 21.7181 15.0535 19.4304 16.196C14.4485 18.6854 9.80891 21.687 5.99804 25.8143C4.09941 27.8705 2.49194 30.1394 1.56726 32.8109C1.29687 33.593 1.04008 34.4314 0.84685 35.24L0.790436 36.4137ZM18.8987 58.5922C18.6828 61.4835 17.3723 63.8276 15.2305 65.7263C14.0257 66.7936 12.6439 67.5536 11.0345 67.8207C10.4509 67.9173 9.85365 67.9407 9.28756 67.6988C8.48026 67.3539 8.29934 66.6373 8.28378 65.8741C8.25979 64.6576 8.68581 63.5579 9.27005 62.5113C10.0326 61.147 11.1505 60.1069 12.3443 59.1356C14.2248 57.6046 16.2648 56.309 18.354 55.0861L18.5116 55.0212C18.8345 56.2143 18.9882 57.3926 18.8987 58.5922ZM35.2121 46.0261C35.0597 46.9495 34.8691 47.8735 34.5993 48.7683C33.6669 51.8659 32.4692 54.8675 31.1743 57.829C30.935 58.3769 30.5868 58.8768 30.284 59.3962C30.2373 59.4766 30.1679 59.546 30.1005 59.6128C29.7257 59.9831 29.3703 59.9636 29.181 59.4792C28.9605 58.9164 28.825 58.314 28.7083 57.7181C28.6298 57.318 28.6486 56.8978 28.624 56.488C28.6493 53.5739 29.5383 50.9257 31.0465 48.4603C31.6684 47.4436 32.3454 46.4748 33.3796 45.8316C33.6973 45.6338 34.054 45.4749 34.4139 45.3738C34.965 45.2188 35.3035 45.4736 35.2121 46.0261ZM46.3419 60.2061L50.3421 55.5354C50.5087 57.27 47.5603 60.7327 46.3419 60.2061ZM59.118 57.0631C58.8353 57.2253 58.5273 57.342 58.2375 57.4918C57.9723 57.6292 57.8847 57.4905 57.8769 57.2622C57.8717 57.1072 57.8944 56.9451 57.9372 56.7947C58.4774 54.8896 59.4714 53.2633 60.9505 51.9405L61.0543 51.8873C61.7578 53.8553 60.9447 56.0166 59.118 57.0631Z" fill="white"/>
</svg>
