<svg width="83" height="83" viewBox="0 0 83 83" fill="none" xmlns="http://www.w3.org/2000/svg">
<path d="M1.29688 41.4417V81.969H82.3516V0.914307H1.29688V41.4417ZM66.614 38.1995C68.5553 38.65 70.3198 39.6653 71.6848 41.1174C72.4362 41.8997 73.0895 42.7708 73.6301 43.7112C73.6301 43.8149 70.1285 46.1817 67.9952 47.5045C67.9173 47.5564 67.6061 47.2192 67.2624 46.707C66.873 46.035 66.3196 45.4726 65.654 45.0723C64.9884 44.672 64.2322 44.4469 63.4561 44.418C60.9985 44.2494 59.4163 45.5398 59.4293 47.6602C59.409 48.1881 59.5299 48.7119 59.7795 49.1775C60.3177 50.2993 61.3227 50.9672 64.4741 52.3289C70.2777 54.8254 72.7612 56.4724 74.3045 58.8133C76.0293 61.407 76.4119 65.596 75.2447 68.6955C73.9478 72.0674 70.7705 74.3563 66.2768 75.115C64.2244 75.3501 62.1507 75.3283 60.1037 75.0502C56.9796 74.5434 54.0978 73.0559 51.875 70.8029C51.1293 69.9794 49.6768 67.8331 49.7676 67.6774C50.0043 67.5017 50.2535 67.3435 50.5133 67.2041L53.4961 65.4922L55.824 64.1434L56.3103 64.8632C57.1311 66.0373 58.1756 67.0377 59.3839 67.8071C61.9777 69.1688 65.5181 68.9808 67.2689 67.4051C67.8567 66.8277 68.2234 66.0624 68.3052 65.2425C68.387 64.4226 68.1786 63.6 67.7163 62.9179C67.0679 62.0166 65.771 61.2579 62.1462 59.6757C57.9638 57.8731 56.1612 56.7577 54.5141 54.981C53.4859 53.8086 52.7268 52.4253 52.29 50.9283C51.9642 49.218 51.916 47.4664 52.1473 45.7408C53.0098 41.701 56.038 38.8803 60.4603 38.0438C62.5083 37.7904 64.5829 37.8473 66.614 38.2124V38.1995ZM47.5888 41.5973V44.9173H37.0647V74.8945H29.6012V44.9108H19.0511V41.6686C19.0228 40.5525 19.0531 39.4356 19.1419 38.3227C19.1808 38.2708 25.6263 38.2449 33.4075 38.2578H47.5499L47.5888 41.5973Z" fill="white"/>
</svg>
